<svg xmlns="http://www.w3.org/2000/svg" viewBox="0 0 13 17">
  <defs>
    <style>
      .cls-1 {
        fill: none;
        stroke: #4e6e32;
      }
    </style>
  </defs>
  <path id="Path_32" data-name="Path 32" class="cls-1" d="M5.375,1.688A.717.717,0,0,0,6,2a.717.717,0,0,0,.625-.312l2.094-3q1.562-2.25,2.063-3.031a8.8,8.8,0,0,0,.969-1.891A5.689,5.689,0,0,0,12-8a5.791,5.791,0,0,0-.812-3A6.115,6.115,0,0,0,9-13.187,5.791,5.791,0,0,0,6-14a5.791,5.791,0,0,0-3,.813A6.115,6.115,0,0,0,.813-11,5.791,5.791,0,0,0,0-8,5.689,5.689,0,0,0,.25-6.234a8.8,8.8,0,0,0,.969,1.891q.5.781,2.063,3.031Q4.562.5,5.375,1.688ZM6-5.5a2.407,2.407,0,0,1-1.766-.734A2.407,2.407,0,0,1,3.5-8a2.407,2.407,0,0,1,.734-1.766A2.407,2.407,0,0,1,6-10.5a2.407,2.407,0,0,1,1.766.734A2.407,2.407,0,0,1,8.5-8a2.407,2.407,0,0,1-.734,1.766A2.407,2.407,0,0,1,6-5.5Z" transform="translate(0.5 14.5)"/>
</svg>
