<svg xmlns="http://www.w3.org/2000/svg" viewBox="0 0 185.66 185.67"><defs><style>.fe564ccd-315e-4e29-b43e-fd22f42a15a6{fill:#f3f3f4;}</style></defs><g id="3edbeab4-126c-4437-98ec-45e7cfc00b69" data-name="Layer 2"><g id="92249b62-1f17-417e-8a00-dfb921b8b0e8" data-name="Layer 1"><path class="fe564ccd-315e-4e29-b43e-fd22f42a15a6" d="M110.36,135.21,50.53,75.38a42.31,42.31,0,0,0,59.83,59.83Z"/><polygon class="fe564ccd-315e-4e29-b43e-fd22f42a15a6" points="140.63 115.92 138.85 46.89 69.82 45.12 140.63 115.92"/><path class="fe564ccd-315e-4e29-b43e-fd22f42a15a6" d="M138.7,131.7,54,47A59.56,59.56,0,0,0,47,54.12l84.67,84.67A60.15,60.15,0,0,0,138.7,131.7Z"/><path class="fe564ccd-315e-4e29-b43e-fd22f42a15a6" d="M153.34,52.66l3.56-13.28,3.88-14.5-14.5,3.89L133,32.32A72.93,72.93,0,0,1,153.34,52.66Z"/><path class="fe564ccd-315e-4e29-b43e-fd22f42a15a6" d="M171.16,64.07,157.88,60.5a72.36,72.36,0,0,1,7.44,27.8L175,78.57,185.66,68Z"/><path class="fe564ccd-315e-4e29-b43e-fd22f42a15a6" d="M175,107.09l-9.73-9.74a72.25,72.25,0,0,1-7.43,27.8l13.27-3.56,14.5-3.89Z"/><path class="fe564ccd-315e-4e29-b43e-fd22f42a15a6" d="M153.34,133A72.85,72.85,0,0,1,133,153.34l13.29,3.56,14.5,3.89-3.89-14.5Z"/><path class="fe564ccd-315e-4e29-b43e-fd22f42a15a6" d="M97.37,165.32l9.73,9.73,10.62,10.61,3.89-14.5,3.56-13.28A72.15,72.15,0,0,1,97.37,165.32Z"/><path class="fe564ccd-315e-4e29-b43e-fd22f42a15a6" d="M60.52,157.9l3.57,13.27L68,185.67,78.58,175l9.73-9.73A72.26,72.26,0,0,1,60.52,157.9Z"/><path class="fe564ccd-315e-4e29-b43e-fd22f42a15a6" d="M32.32,133l-3.55,13.29-3.89,14.5,14.5-3.88,13.29-3.57A72.87,72.87,0,0,1,32.32,133Z"/><path class="fe564ccd-315e-4e29-b43e-fd22f42a15a6" d="M20.35,97.37l-9.73,9.73L0,117.71l14.5,3.88,13.28,3.56A72.29,72.29,0,0,1,20.35,97.37Z"/><path class="fe564ccd-315e-4e29-b43e-fd22f42a15a6" d="M27.78,60.52,14.5,64.08,0,68,10.62,78.58l9.73,9.73A72.1,72.1,0,0,1,27.78,60.52Z"/><path class="fe564ccd-315e-4e29-b43e-fd22f42a15a6" d="M32.32,52.67A72.92,72.92,0,0,1,52.66,32.33L39.37,28.77l-14.5-3.89,3.89,14.51Z"/><path class="fe564ccd-315e-4e29-b43e-fd22f42a15a6" d="M88.3,20.35l-9.73-9.73L67.95,0l-3.88,14.5L60.51,27.79A72.1,72.1,0,0,1,88.3,20.35Z"/><path class="fe564ccd-315e-4e29-b43e-fd22f42a15a6" d="M125.14,27.78,121.59,14.5,117.7,0,107.09,10.62l-9.74,9.73A72.05,72.05,0,0,1,125.14,27.78Z"/></g></g></svg>
