<svg xmlns="http://www.w3.org/2000/svg" viewBox="0 0 693.68 185.67"><defs><style>.fd16f6ef-5e34-449e-83a2-2fdc0f53d023{fill:#4e6e32;}.\37 3e983ac-d8cd-43d6-a30b-7133a4be7639{fill:#7a8079;}</style></defs><g id="bb2403b5-d3af-44e0-a2cd-70cdcef123cd" data-name="Layer 2"><g id="f2481d1f-9307-4469-88ba-e70f84a4ee42" data-name="Layer 1"><path class="fd16f6ef-5e34-449e-83a2-2fdc0f53d023" d="M110.36,135.21,50.53,75.38a42.31,42.31,0,0,0,59.83,59.83Z"/><polygon class="fd16f6ef-5e34-449e-83a2-2fdc0f53d023" points="140.63 115.92 138.85 46.89 69.82 45.12 140.63 115.92"/><path class="73e983ac-d8cd-43d6-a30b-7133a4be7639" d="M138.7,131.7,54,47A59.56,59.56,0,0,0,47,54.12l84.67,84.67A60.15,60.15,0,0,0,138.7,131.7Z"/><path class="73e983ac-d8cd-43d6-a30b-7133a4be7639" d="M242.5,55.38l7.71,30.74,8.06-30.74H287V68.7a4.5,4.5,0,0,0-2.06,2.45,11.72,11.72,0,0,0-.48,3.59v35a25.44,25.44,0,0,0,.3,4.69,4.46,4.46,0,0,0,2.24,2.67v13.31H259.58V117.13a4.53,4.53,0,0,0,2.06-2.44,11.9,11.9,0,0,0,.48-3.6V89.63l-10.34,40.81h-7.35L233.75,89.63l-.17,20.14a24.52,24.52,0,0,0,.31,4.69,4.45,4.45,0,0,0,2.23,2.67v13.31H213V117.13a4.51,4.51,0,0,0,2.05-2.44,11.85,11.85,0,0,0,.48-3.6V75a13.48,13.48,0,0,0-.44-3.81,4.6,4.6,0,0,0-2.1-2.5V55.38Z"/><path class="73e983ac-d8cd-43d6-a30b-7133a4be7639" d="M321.43,75.27v35.57a26.87,26.87,0,0,0,.18,4,5,5,0,0,0,2.45,3.23v12.35H298.22V118.09a4.41,4.41,0,0,0,2.19-2.58,19.93,19.93,0,0,0,.35-4.34V93.84a13.28,13.28,0,0,0-.44-3.77,4.62,4.62,0,0,0-2.11-2.45V75.27Zm-11-3.33a13.75,13.75,0,0,1-7.71-2,7.78,7.78,0,0,1-3.67-6.83,6.93,6.93,0,0,1,3.46-6.26,14.36,14.36,0,0,1,7.75-2.14,13.27,13.27,0,0,1,7.53,2.1,7.68,7.68,0,0,1,3.58,6.66,7.34,7.34,0,0,1-3.5,6.4A13.13,13.13,0,0,1,310.48,71.94Z"/><path class="73e983ac-d8cd-43d6-a30b-7133a4be7639" d="M357,55.38v55.45a27,27,0,0,0,.3,4.77,3.68,3.68,0,0,0,2.23,2.49v12.35H333.8V118.09a4.4,4.4,0,0,0,2.19-2.58,20,20,0,0,0,.36-4.34V74a12.94,12.94,0,0,0-.44-3.76,4.64,4.64,0,0,0-2.1-2.45V55.38Z"/><path class="73e983ac-d8cd-43d6-a30b-7133a4be7639" d="M392.48,55.38v55.45a25.1,25.1,0,0,0,.32,4.77,3.64,3.64,0,0,0,2.23,2.49v12.35H369.28V118.09a4.37,4.37,0,0,0,2.19-2.58,19.75,19.75,0,0,0,.36-4.34V74a13.61,13.61,0,0,0-.43-3.76,4.66,4.66,0,0,0-2.12-2.45V55.38Z"/><path class="fd16f6ef-5e34-449e-83a2-2fdc0f53d023" d="M463.88,68.7V55.38h25.31V68.7a7.57,7.57,0,0,0-2.45,3.94c-.25.76-.59,2.34-1.06,4.73l-9.9,53.07h-22.5L446.7,94.62l-7.44,35.82H417.2l-9.92-53.07a40.31,40.31,0,0,0-1.13-4.73,8.35,8.35,0,0,0-2.71-3.94V55.38H432.7V68.7a4,4,0,0,0-2.46,4l2.9,23.65,8.06-41h14.37l8.22,40.91,2.55-23.57A4,4,0,0,0,463.88,68.7Z"/><path class="fd16f6ef-5e34-449e-83a2-2fdc0f53d023" d="M555.72,77.17v31.58q0,13.12-7.71,18.55-6.57,4.63-20.24,4.64t-20.13-4.64q-7.81-5.51-7.8-18.55V77.17q0-13.12,7.71-18.55Q514.11,54,527.77,54t20.15,4.64Q555.7,64.13,555.72,77.17ZM523.22,76v33.92a8.8,8.8,0,0,0,.43,3.06,4.05,4.05,0,0,0,4.12,2.8,3.87,3.87,0,0,0,3.46-1.62,7.46,7.46,0,0,0,1.09-4.24V76a8.47,8.47,0,0,0-.44-3.06,4,4,0,0,0-4.12-2.71,3.88,3.88,0,0,0-3.45,1.58A7.12,7.12,0,0,0,523.22,76Z"/><path class="fd16f6ef-5e34-449e-83a2-2fdc0f53d023" d="M623.73,77.17v31.58q0,13.12-7.71,18.55c-4.36,3.09-11.12,4.64-20.22,4.64s-15.77-1.55-20.15-4.64q-7.79-5.51-7.79-18.55V77.17q0-13.12,7.71-18.55Q582.12,54,595.8,54t20.15,4.64Q623.73,64.13,623.73,77.17ZM591.24,76v33.92a8.67,8.67,0,0,0,.44,3.06,4,4,0,0,0,4.11,2.8,3.88,3.88,0,0,0,3.46-1.62,7.45,7.45,0,0,0,1.09-4.24V76a8.75,8.75,0,0,0-.44-3.06,4,4,0,0,0-4.11-2.71,3.93,3.93,0,0,0-3.47,1.58A7.24,7.24,0,0,0,591.24,76Z"/><path class="fd16f6ef-5e34-449e-83a2-2fdc0f53d023" d="M635.43,55.38h32.41a68.26,68.26,0,0,1,9.89.53,19.64,19.64,0,0,1,9.21,3.67,16.38,16.38,0,0,1,5.68,8.5,39,39,0,0,1,1.06,10.33v28.12a41,41,0,0,1-.88,9.9,17.31,17.31,0,0,1-5.16,8.5,19.51,19.51,0,0,1-6.87,4.07q-4.09,1.44-12.23,1.44h-33.1V117.13a4.3,4.3,0,0,0,2.36-2.27,9.52,9.52,0,0,0,.61-3.68V74.65a11,11,0,0,0-.52-3.76,4,4,0,0,0-2.45-2.19ZM661.8,71.77V114.6h1.83c2.56,0,4.32-.54,5.26-1.58s1.41-3,1.41-5.7V79c0-2.74-.48-4.64-1.41-5.69s-2.7-1.57-5.26-1.57Z"/><path class="73e983ac-d8cd-43d6-a30b-7133a4be7639" d="M153.34,52.66l3.56-13.28,3.88-14.5-14.5,3.89L133,32.32A72.93,72.93,0,0,1,153.34,52.66Z"/><path class="73e983ac-d8cd-43d6-a30b-7133a4be7639" d="M171.16,64.07,157.88,60.5a72.36,72.36,0,0,1,7.44,27.8L175,78.57,185.66,68Z"/><path class="73e983ac-d8cd-43d6-a30b-7133a4be7639" d="M175,107.09l-9.73-9.74a72.25,72.25,0,0,1-7.43,27.8l13.27-3.56,14.5-3.89Z"/><path class="73e983ac-d8cd-43d6-a30b-7133a4be7639" d="M153.34,133A72.85,72.85,0,0,1,133,153.34l13.29,3.56,14.5,3.89-3.89-14.5Z"/><path class="73e983ac-d8cd-43d6-a30b-7133a4be7639" d="M97.37,165.32l9.73,9.73,10.62,10.61,3.89-14.5,3.56-13.28A72.15,72.15,0,0,1,97.37,165.32Z"/><path class="73e983ac-d8cd-43d6-a30b-7133a4be7639" d="M60.52,157.9l3.57,13.27L68,185.67,78.58,175l9.73-9.73A72.26,72.26,0,0,1,60.52,157.9Z"/><path class="73e983ac-d8cd-43d6-a30b-7133a4be7639" d="M32.32,133l-3.55,13.29-3.89,14.5,14.5-3.88,13.29-3.57A72.87,72.87,0,0,1,32.32,133Z"/><path class="73e983ac-d8cd-43d6-a30b-7133a4be7639" d="M20.35,97.37l-9.73,9.73L0,117.71l14.5,3.88,13.28,3.56A72.29,72.29,0,0,1,20.35,97.37Z"/><path class="73e983ac-d8cd-43d6-a30b-7133a4be7639" d="M27.78,60.52,14.5,64.08,0,68,10.62,78.58l9.73,9.73A72.1,72.1,0,0,1,27.78,60.52Z"/><path class="73e983ac-d8cd-43d6-a30b-7133a4be7639" d="M32.32,52.67A72.92,72.92,0,0,1,52.66,32.33L39.37,28.77l-14.5-3.89,3.89,14.51Z"/><path class="73e983ac-d8cd-43d6-a30b-7133a4be7639" d="M88.3,20.35l-9.73-9.73L67.95,0l-3.88,14.5L60.51,27.79A72.1,72.1,0,0,1,88.3,20.35Z"/><path class="73e983ac-d8cd-43d6-a30b-7133a4be7639" d="M125.14,27.78,121.59,14.5,117.7,0,107.09,10.62l-9.74,9.73A72.05,72.05,0,0,1,125.14,27.78Z"/><polygon class="fd16f6ef-5e34-449e-83a2-2fdc0f53d023" points="101.5 8.02 92.83 19.47 84.16 8.02 101.5 8.02"/><polygon class="fd16f6ef-5e34-449e-83a2-2fdc0f53d023" points="84.16 177.65 92.83 166.2 101.5 177.65 84.16 177.65"/><polygon class="fd16f6ef-5e34-449e-83a2-2fdc0f53d023" points="57.93 15.05 56.15 29.3 42.91 23.72 57.93 15.05"/><polygon class="fd16f6ef-5e34-449e-83a2-2fdc0f53d023" points="127.73 170.62 129.51 156.37 142.75 161.94 127.73 170.62"/><polygon class="fd16f6ef-5e34-449e-83a2-2fdc0f53d023" points="23.71 42.92 29.29 56.15 15.04 57.94 23.71 42.92"/><polygon class="fd16f6ef-5e34-449e-83a2-2fdc0f53d023" points="161.95 142.75 156.37 129.52 170.62 127.73 161.95 142.75"/><polygon class="fd16f6ef-5e34-449e-83a2-2fdc0f53d023" points="8.02 84.16 19.46 92.83 8.02 101.5 8.02 84.16"/><polygon class="fd16f6ef-5e34-449e-83a2-2fdc0f53d023" points="177.64 101.5 166.2 92.83 177.64 84.16 177.64 101.5"/><polygon class="fd16f6ef-5e34-449e-83a2-2fdc0f53d023" points="15.05 127.73 29.29 129.52 23.72 142.75 15.05 127.73"/><polygon class="fd16f6ef-5e34-449e-83a2-2fdc0f53d023" points="170.62 57.93 156.37 56.15 161.94 42.92 170.62 57.93"/><polygon class="fd16f6ef-5e34-449e-83a2-2fdc0f53d023" points="42.92 161.94 56.15 156.37 57.94 170.62 42.92 161.94"/><polygon class="fd16f6ef-5e34-449e-83a2-2fdc0f53d023" points="142.75 23.72 129.51 29.3 127.73 15.05 142.75 23.72"/><path class="fd16f6ef-5e34-449e-83a2-2fdc0f53d023" d="M110.36,135.21,50.53,75.38a42.31,42.31,0,0,0,59.83,59.83Z"/><polygon class="fd16f6ef-5e34-449e-83a2-2fdc0f53d023" points="140.63 115.92 138.85 46.89 69.82 45.12 140.63 115.92"/><path class="73e983ac-d8cd-43d6-a30b-7133a4be7639" d="M138.7,131.7,54,47A59.56,59.56,0,0,0,47,54.12l84.67,84.67A60.15,60.15,0,0,0,138.7,131.7Z"/><path class="73e983ac-d8cd-43d6-a30b-7133a4be7639" d="M242.5,55.38l7.71,30.74,8.06-30.74H287V68.7a4.5,4.5,0,0,0-2.06,2.45,11.72,11.72,0,0,0-.48,3.59v35a25.44,25.44,0,0,0,.3,4.69,4.46,4.46,0,0,0,2.24,2.67v13.31H259.58V117.13a4.53,4.53,0,0,0,2.06-2.44,11.9,11.9,0,0,0,.48-3.6V89.63l-10.34,40.81h-7.35L233.75,89.63l-.17,20.14a24.52,24.52,0,0,0,.31,4.69,4.45,4.45,0,0,0,2.23,2.67v13.31H213V117.13a4.51,4.51,0,0,0,2.05-2.44,11.85,11.85,0,0,0,.48-3.6V75a13.48,13.48,0,0,0-.44-3.81,4.6,4.6,0,0,0-2.1-2.5V55.38Z"/><path class="73e983ac-d8cd-43d6-a30b-7133a4be7639" d="M321.43,75.27v35.57a26.87,26.87,0,0,0,.18,4,5,5,0,0,0,2.45,3.23v12.35H298.22V118.09a4.41,4.41,0,0,0,2.19-2.58,19.93,19.93,0,0,0,.35-4.34V93.84a13.28,13.28,0,0,0-.44-3.77,4.62,4.62,0,0,0-2.11-2.45V75.27Zm-11-3.33a13.75,13.75,0,0,1-7.71-2,7.78,7.78,0,0,1-3.67-6.83,6.93,6.93,0,0,1,3.46-6.26,14.36,14.36,0,0,1,7.75-2.14,13.27,13.27,0,0,1,7.53,2.1,7.68,7.68,0,0,1,3.58,6.66,7.34,7.34,0,0,1-3.5,6.4A13.13,13.13,0,0,1,310.48,71.94Z"/><path class="73e983ac-d8cd-43d6-a30b-7133a4be7639" d="M357,55.38v55.45a27,27,0,0,0,.3,4.77,3.68,3.68,0,0,0,2.23,2.49v12.35H333.8V118.09a4.4,4.4,0,0,0,2.19-2.58,20,20,0,0,0,.36-4.34V74a12.94,12.94,0,0,0-.44-3.76,4.64,4.64,0,0,0-2.1-2.45V55.38Z"/><path class="73e983ac-d8cd-43d6-a30b-7133a4be7639" d="M392.48,55.38v55.45a25.1,25.1,0,0,0,.32,4.77,3.64,3.64,0,0,0,2.23,2.49v12.35H369.28V118.09a4.37,4.37,0,0,0,2.19-2.58,19.75,19.75,0,0,0,.36-4.34V74a13.61,13.61,0,0,0-.43-3.76,4.66,4.66,0,0,0-2.12-2.45V55.38Z"/><path class="fd16f6ef-5e34-449e-83a2-2fdc0f53d023" d="M463.88,68.7V55.38h25.31V68.7a7.57,7.57,0,0,0-2.45,3.94c-.25.76-.59,2.34-1.06,4.73l-9.9,53.07h-22.5L446.7,94.62l-7.44,35.82H417.2l-9.92-53.07a40.31,40.31,0,0,0-1.13-4.73,8.35,8.35,0,0,0-2.71-3.94V55.38H432.7V68.7a4,4,0,0,0-2.46,4l2.9,23.65,8.06-41h14.37l8.22,40.91,2.55-23.57A4,4,0,0,0,463.88,68.7Z"/><path class="fd16f6ef-5e34-449e-83a2-2fdc0f53d023" d="M555.72,77.17v31.58q0,13.12-7.71,18.55-6.57,4.63-20.24,4.64t-20.13-4.64q-7.81-5.51-7.8-18.55V77.17q0-13.12,7.71-18.55Q514.11,54,527.77,54t20.15,4.64Q555.7,64.13,555.72,77.17ZM523.22,76v33.92a8.8,8.8,0,0,0,.43,3.06,4.05,4.05,0,0,0,4.12,2.8,3.87,3.87,0,0,0,3.46-1.62,7.46,7.46,0,0,0,1.09-4.24V76a8.47,8.47,0,0,0-.44-3.06,4,4,0,0,0-4.12-2.71,3.88,3.88,0,0,0-3.45,1.58A7.12,7.12,0,0,0,523.22,76Z"/><path class="fd16f6ef-5e34-449e-83a2-2fdc0f53d023" d="M623.73,77.17v31.58q0,13.12-7.71,18.55c-4.36,3.09-11.12,4.64-20.22,4.64s-15.77-1.55-20.15-4.64q-7.79-5.51-7.79-18.55V77.17q0-13.12,7.71-18.55Q582.12,54,595.8,54t20.15,4.64Q623.73,64.13,623.73,77.17ZM591.24,76v33.92a8.67,8.67,0,0,0,.44,3.06,4,4,0,0,0,4.11,2.8,3.88,3.88,0,0,0,3.46-1.62,7.45,7.45,0,0,0,1.09-4.24V76a8.75,8.75,0,0,0-.44-3.06,4,4,0,0,0-4.11-2.71,3.93,3.93,0,0,0-3.47,1.58A7.24,7.24,0,0,0,591.24,76Z"/><path class="fd16f6ef-5e34-449e-83a2-2fdc0f53d023" d="M635.43,55.38h32.41a68.26,68.26,0,0,1,9.89.53,19.64,19.64,0,0,1,9.21,3.67,16.38,16.38,0,0,1,5.68,8.5,39,39,0,0,1,1.06,10.33v28.12a41,41,0,0,1-.88,9.9,17.31,17.31,0,0,1-5.16,8.5,19.51,19.51,0,0,1-6.87,4.07q-4.09,1.44-12.23,1.44h-33.1V117.13a4.3,4.3,0,0,0,2.36-2.27,9.52,9.52,0,0,0,.61-3.68V74.65a11,11,0,0,0-.52-3.76,4,4,0,0,0-2.45-2.19ZM661.8,71.77V114.6h1.83c2.56,0,4.32-.54,5.26-1.58s1.41-3,1.41-5.7V79c0-2.74-.48-4.64-1.41-5.69s-2.7-1.57-5.26-1.57Z"/><path class="73e983ac-d8cd-43d6-a30b-7133a4be7639" d="M153.34,52.66l3.56-13.28,3.88-14.5-14.5,3.89L133,32.32A72.93,72.93,0,0,1,153.34,52.66Z"/><path class="73e983ac-d8cd-43d6-a30b-7133a4be7639" d="M171.16,64.07,157.88,60.5a72.36,72.36,0,0,1,7.44,27.8L175,78.57,185.66,68Z"/><path class="73e983ac-d8cd-43d6-a30b-7133a4be7639" d="M175,107.09l-9.73-9.74a72.25,72.25,0,0,1-7.43,27.8l13.27-3.56,14.5-3.89Z"/><path class="73e983ac-d8cd-43d6-a30b-7133a4be7639" d="M153.34,133A72.85,72.85,0,0,1,133,153.34l13.29,3.56,14.5,3.89-3.89-14.5Z"/><path class="73e983ac-d8cd-43d6-a30b-7133a4be7639" d="M97.37,165.32l9.73,9.73,10.62,10.61,3.89-14.5,3.56-13.28A72.15,72.15,0,0,1,97.37,165.32Z"/><path class="73e983ac-d8cd-43d6-a30b-7133a4be7639" d="M60.52,157.9l3.57,13.27L68,185.67,78.58,175l9.73-9.73A72.26,72.26,0,0,1,60.52,157.9Z"/><path class="73e983ac-d8cd-43d6-a30b-7133a4be7639" d="M32.32,133l-3.55,13.29-3.89,14.5,14.5-3.88,13.29-3.57A72.87,72.87,0,0,1,32.32,133Z"/><path class="73e983ac-d8cd-43d6-a30b-7133a4be7639" d="M20.35,97.37l-9.73,9.73L0,117.71l14.5,3.88,13.28,3.56A72.29,72.29,0,0,1,20.35,97.37Z"/><path class="73e983ac-d8cd-43d6-a30b-7133a4be7639" d="M27.78,60.52,14.5,64.08,0,68,10.62,78.58l9.73,9.73A72.1,72.1,0,0,1,27.78,60.52Z"/><path class="73e983ac-d8cd-43d6-a30b-7133a4be7639" d="M32.32,52.67A72.92,72.92,0,0,1,52.66,32.33L39.37,28.77l-14.5-3.89,3.89,14.51Z"/><path class="73e983ac-d8cd-43d6-a30b-7133a4be7639" d="M88.3,20.35l-9.73-9.73L67.95,0l-3.88,14.5L60.51,27.79A72.1,72.1,0,0,1,88.3,20.35Z"/><path class="73e983ac-d8cd-43d6-a30b-7133a4be7639" d="M125.14,27.78,121.59,14.5,117.7,0,107.09,10.62l-9.74,9.73A72.05,72.05,0,0,1,125.14,27.78Z"/><polygon class="fd16f6ef-5e34-449e-83a2-2fdc0f53d023" points="101.5 8.02 92.83 19.47 84.16 8.02 101.5 8.02"/><polygon class="fd16f6ef-5e34-449e-83a2-2fdc0f53d023" points="84.16 177.65 92.83 166.2 101.5 177.65 84.16 177.65"/><polygon class="fd16f6ef-5e34-449e-83a2-2fdc0f53d023" points="57.93 15.05 56.15 29.3 42.91 23.72 57.93 15.05"/><polygon class="fd16f6ef-5e34-449e-83a2-2fdc0f53d023" points="127.73 170.62 129.51 156.37 142.75 161.94 127.73 170.62"/><polygon class="fd16f6ef-5e34-449e-83a2-2fdc0f53d023" points="23.71 42.92 29.29 56.15 15.04 57.94 23.71 42.92"/><polygon class="fd16f6ef-5e34-449e-83a2-2fdc0f53d023" points="161.95 142.75 156.37 129.52 170.62 127.73 161.95 142.75"/><polygon class="fd16f6ef-5e34-449e-83a2-2fdc0f53d023" points="8.02 84.16 19.46 92.83 8.02 101.5 8.02 84.16"/><polygon class="fd16f6ef-5e34-449e-83a2-2fdc0f53d023" points="177.64 101.5 166.2 92.83 177.64 84.16 177.64 101.5"/><polygon class="fd16f6ef-5e34-449e-83a2-2fdc0f53d023" points="15.05 127.73 29.29 129.52 23.72 142.75 15.05 127.73"/><polygon class="fd16f6ef-5e34-449e-83a2-2fdc0f53d023" points="170.62 57.93 156.37 56.15 161.94 42.92 170.62 57.93"/><polygon class="fd16f6ef-5e34-449e-83a2-2fdc0f53d023" points="42.92 161.94 56.15 156.37 57.94 170.62 42.92 161.94"/><polygon class="fd16f6ef-5e34-449e-83a2-2fdc0f53d023" points="142.75 23.72 129.51 29.3 127.73 15.05 142.75 23.72"/><path class="fd16f6ef-5e34-449e-83a2-2fdc0f53d023" d="M110.36,135.21,50.53,75.38a42.31,42.31,0,0,0,59.83,59.83Z"/><polygon class="fd16f6ef-5e34-449e-83a2-2fdc0f53d023" points="140.63 115.92 138.85 46.89 69.82 45.12 140.63 115.92"/><path class="73e983ac-d8cd-43d6-a30b-7133a4be7639" d="M138.7,131.7,54,47A59.56,59.56,0,0,0,47,54.12l84.67,84.67A60.15,60.15,0,0,0,138.7,131.7Z"/><path class="73e983ac-d8cd-43d6-a30b-7133a4be7639" d="M242.5,55.38l7.71,30.74,8.06-30.74H287V68.7a4.5,4.5,0,0,0-2.06,2.45,11.72,11.72,0,0,0-.48,3.59v35a25.44,25.44,0,0,0,.3,4.69,4.46,4.46,0,0,0,2.24,2.67v13.31H259.58V117.13a4.53,4.53,0,0,0,2.06-2.44,11.9,11.9,0,0,0,.48-3.6V89.63l-10.34,40.81h-7.35L233.75,89.63l-.17,20.14a24.52,24.52,0,0,0,.31,4.69,4.45,4.45,0,0,0,2.23,2.67v13.31H213V117.13a4.51,4.51,0,0,0,2.05-2.44,11.85,11.85,0,0,0,.48-3.6V75a13.48,13.48,0,0,0-.44-3.81,4.6,4.6,0,0,0-2.1-2.5V55.38Z"/><path class="73e983ac-d8cd-43d6-a30b-7133a4be7639" d="M321.43,75.27v35.57a26.87,26.87,0,0,0,.18,4,5,5,0,0,0,2.45,3.23v12.35H298.22V118.09a4.41,4.41,0,0,0,2.19-2.58,19.93,19.93,0,0,0,.35-4.34V93.84a13.28,13.28,0,0,0-.44-3.77,4.62,4.62,0,0,0-2.11-2.45V75.27Zm-11-3.33a13.75,13.75,0,0,1-7.71-2,7.78,7.78,0,0,1-3.67-6.83,6.93,6.93,0,0,1,3.46-6.26,14.36,14.36,0,0,1,7.75-2.14,13.27,13.27,0,0,1,7.53,2.1,7.68,7.68,0,0,1,3.58,6.66,7.34,7.34,0,0,1-3.5,6.4A13.13,13.13,0,0,1,310.48,71.94Z"/><path class="73e983ac-d8cd-43d6-a30b-7133a4be7639" d="M357,55.38v55.45a27,27,0,0,0,.3,4.77,3.68,3.68,0,0,0,2.23,2.49v12.35H333.8V118.09a4.4,4.4,0,0,0,2.19-2.58,20,20,0,0,0,.36-4.34V74a12.94,12.94,0,0,0-.44-3.76,4.64,4.64,0,0,0-2.1-2.45V55.38Z"/><path class="73e983ac-d8cd-43d6-a30b-7133a4be7639" d="M392.48,55.38v55.45a25.1,25.1,0,0,0,.32,4.77,3.64,3.64,0,0,0,2.23,2.49v12.35H369.28V118.09a4.37,4.37,0,0,0,2.19-2.58,19.75,19.75,0,0,0,.36-4.34V74a13.61,13.61,0,0,0-.43-3.76,4.66,4.66,0,0,0-2.12-2.45V55.38Z"/><path class="fd16f6ef-5e34-449e-83a2-2fdc0f53d023" d="M463.88,68.7V55.38h25.31V68.7a7.57,7.57,0,0,0-2.45,3.94c-.25.76-.59,2.34-1.06,4.73l-9.9,53.07h-22.5L446.7,94.62l-7.44,35.82H417.2l-9.92-53.07a40.31,40.31,0,0,0-1.13-4.73,8.35,8.35,0,0,0-2.71-3.94V55.38H432.7V68.7a4,4,0,0,0-2.46,4l2.9,23.65,8.06-41h14.37l8.22,40.91,2.55-23.57A4,4,0,0,0,463.88,68.7Z"/><path class="fd16f6ef-5e34-449e-83a2-2fdc0f53d023" d="M555.72,77.17v31.58q0,13.12-7.71,18.55-6.57,4.63-20.24,4.64t-20.13-4.64q-7.81-5.51-7.8-18.55V77.17q0-13.12,7.71-18.55Q514.11,54,527.77,54t20.15,4.64Q555.7,64.13,555.72,77.17ZM523.22,76v33.92a8.8,8.8,0,0,0,.43,3.06,4.05,4.05,0,0,0,4.12,2.8,3.87,3.87,0,0,0,3.46-1.62,7.46,7.46,0,0,0,1.09-4.24V76a8.47,8.47,0,0,0-.44-3.06,4,4,0,0,0-4.12-2.71,3.88,3.88,0,0,0-3.45,1.58A7.12,7.12,0,0,0,523.22,76Z"/><path class="fd16f6ef-5e34-449e-83a2-2fdc0f53d023" d="M623.73,77.17v31.58q0,13.12-7.71,18.55c-4.36,3.09-11.12,4.64-20.22,4.64s-15.77-1.55-20.15-4.64q-7.79-5.51-7.79-18.55V77.17q0-13.12,7.71-18.55Q582.12,54,595.8,54t20.15,4.64Q623.73,64.13,623.73,77.17ZM591.24,76v33.92a8.67,8.67,0,0,0,.44,3.06,4,4,0,0,0,4.11,2.8,3.88,3.88,0,0,0,3.46-1.62,7.45,7.45,0,0,0,1.09-4.24V76a8.75,8.75,0,0,0-.44-3.06,4,4,0,0,0-4.11-2.71,3.93,3.93,0,0,0-3.47,1.58A7.24,7.24,0,0,0,591.24,76Z"/><path class="fd16f6ef-5e34-449e-83a2-2fdc0f53d023" d="M635.43,55.38h32.41a68.26,68.26,0,0,1,9.89.53,19.64,19.64,0,0,1,9.21,3.67,16.38,16.38,0,0,1,5.68,8.5,39,39,0,0,1,1.06,10.33v28.12a41,41,0,0,1-.88,9.9,17.31,17.31,0,0,1-5.16,8.5,19.51,19.51,0,0,1-6.87,4.07q-4.09,1.44-12.23,1.44h-33.1V117.13a4.3,4.3,0,0,0,2.36-2.27,9.52,9.52,0,0,0,.61-3.68V74.65a11,11,0,0,0-.52-3.76,4,4,0,0,0-2.45-2.19ZM661.8,71.77V114.6h1.83c2.56,0,4.32-.54,5.26-1.58s1.41-3,1.41-5.7V79c0-2.74-.48-4.64-1.41-5.69s-2.7-1.57-5.26-1.57Z"/><path class="73e983ac-d8cd-43d6-a30b-7133a4be7639" d="M153.34,52.66l3.56-13.28,3.88-14.5-14.5,3.89L133,32.32A72.93,72.93,0,0,1,153.34,52.66Z"/><path class="73e983ac-d8cd-43d6-a30b-7133a4be7639" d="M171.16,64.07,157.88,60.5a72.36,72.36,0,0,1,7.44,27.8L175,78.57,185.66,68Z"/><path class="73e983ac-d8cd-43d6-a30b-7133a4be7639" d="M175,107.09l-9.73-9.74a72.25,72.25,0,0,1-7.43,27.8l13.27-3.56,14.5-3.89Z"/><path class="73e983ac-d8cd-43d6-a30b-7133a4be7639" d="M153.34,133A72.85,72.85,0,0,1,133,153.34l13.29,3.56,14.5,3.89-3.89-14.5Z"/><path class="73e983ac-d8cd-43d6-a30b-7133a4be7639" d="M97.37,165.32l9.73,9.73,10.62,10.61,3.89-14.5,3.56-13.28A72.15,72.15,0,0,1,97.37,165.32Z"/><path class="73e983ac-d8cd-43d6-a30b-7133a4be7639" d="M60.52,157.9l3.57,13.27L68,185.67,78.58,175l9.73-9.73A72.26,72.26,0,0,1,60.52,157.9Z"/><path class="73e983ac-d8cd-43d6-a30b-7133a4be7639" d="M32.32,133l-3.55,13.29-3.89,14.5,14.5-3.88,13.29-3.57A72.87,72.87,0,0,1,32.32,133Z"/><path class="73e983ac-d8cd-43d6-a30b-7133a4be7639" d="M20.35,97.37l-9.73,9.73L0,117.71l14.5,3.88,13.28,3.56A72.29,72.29,0,0,1,20.35,97.37Z"/><path class="73e983ac-d8cd-43d6-a30b-7133a4be7639" d="M27.78,60.52,14.5,64.08,0,68,10.62,78.58l9.73,9.73A72.1,72.1,0,0,1,27.78,60.52Z"/><path class="73e983ac-d8cd-43d6-a30b-7133a4be7639" d="M32.32,52.67A72.92,72.92,0,0,1,52.66,32.33L39.37,28.77l-14.5-3.89,3.89,14.51Z"/><path class="73e983ac-d8cd-43d6-a30b-7133a4be7639" d="M88.3,20.35l-9.73-9.73L67.95,0l-3.88,14.5L60.51,27.79A72.1,72.1,0,0,1,88.3,20.35Z"/><path class="73e983ac-d8cd-43d6-a30b-7133a4be7639" d="M125.14,27.78,121.59,14.5,117.7,0,107.09,10.62l-9.74,9.73A72.05,72.05,0,0,1,125.14,27.78Z"/><polygon class="fd16f6ef-5e34-449e-83a2-2fdc0f53d023" points="101.5 8.02 92.83 19.47 84.16 8.02 101.5 8.02"/><polygon class="fd16f6ef-5e34-449e-83a2-2fdc0f53d023" points="84.16 177.65 92.83 166.2 101.5 177.65 84.16 177.65"/><polygon class="fd16f6ef-5e34-449e-83a2-2fdc0f53d023" points="57.93 15.05 56.15 29.3 42.91 23.72 57.93 15.05"/><polygon class="fd16f6ef-5e34-449e-83a2-2fdc0f53d023" points="127.73 170.62 129.51 156.37 142.75 161.94 127.73 170.62"/><polygon class="fd16f6ef-5e34-449e-83a2-2fdc0f53d023" points="23.71 42.92 29.29 56.15 15.04 57.94 23.71 42.92"/><polygon class="fd16f6ef-5e34-449e-83a2-2fdc0f53d023" points="161.95 142.75 156.37 129.52 170.62 127.73 161.95 142.75"/><polygon class="fd16f6ef-5e34-449e-83a2-2fdc0f53d023" points="8.02 84.16 19.46 92.83 8.02 101.5 8.02 84.16"/><polygon class="fd16f6ef-5e34-449e-83a2-2fdc0f53d023" points="177.64 101.5 166.2 92.83 177.64 84.16 177.64 101.5"/><polygon class="fd16f6ef-5e34-449e-83a2-2fdc0f53d023" points="15.05 127.73 29.29 129.52 23.72 142.75 15.05 127.73"/><polygon class="fd16f6ef-5e34-449e-83a2-2fdc0f53d023" points="170.62 57.93 156.37 56.15 161.94 42.92 170.62 57.93"/><polygon class="fd16f6ef-5e34-449e-83a2-2fdc0f53d023" points="42.92 161.94 56.15 156.37 57.94 170.62 42.92 161.94"/><polygon class="fd16f6ef-5e34-449e-83a2-2fdc0f53d023" points="142.75 23.72 129.51 29.3 127.73 15.05 142.75 23.72"/><path class="fd16f6ef-5e34-449e-83a2-2fdc0f53d023" d="M110.36,135.21,50.53,75.38a42.31,42.31,0,0,0,59.83,59.83Z"/><polygon class="fd16f6ef-5e34-449e-83a2-2fdc0f53d023" points="140.63 115.92 138.85 46.89 69.82 45.12 140.63 115.92"/><path class="73e983ac-d8cd-43d6-a30b-7133a4be7639" d="M138.7,131.7,54,47A59.56,59.56,0,0,0,47,54.12l84.67,84.67A60.15,60.15,0,0,0,138.7,131.7Z"/><path class="73e983ac-d8cd-43d6-a30b-7133a4be7639" d="M242.5,55.38l7.71,30.74,8.06-30.74H287V68.7a4.5,4.5,0,0,0-2.06,2.45,11.72,11.72,0,0,0-.48,3.59v35a25.44,25.44,0,0,0,.3,4.69,4.46,4.46,0,0,0,2.24,2.67v13.31H259.58V117.13a4.53,4.53,0,0,0,2.06-2.44,11.9,11.9,0,0,0,.48-3.6V89.63l-10.34,40.81h-7.35L233.75,89.63l-.17,20.14a24.52,24.52,0,0,0,.31,4.69,4.45,4.45,0,0,0,2.23,2.67v13.31H213V117.13a4.51,4.51,0,0,0,2.05-2.44,11.85,11.85,0,0,0,.48-3.6V75a13.48,13.48,0,0,0-.44-3.81,4.6,4.6,0,0,0-2.1-2.5V55.38Z"/><path class="73e983ac-d8cd-43d6-a30b-7133a4be7639" d="M321.43,75.27v35.57a26.87,26.87,0,0,0,.18,4,5,5,0,0,0,2.45,3.23v12.35H298.22V118.09a4.41,4.41,0,0,0,2.19-2.58,19.93,19.93,0,0,0,.35-4.34V93.84a13.28,13.28,0,0,0-.44-3.77,4.62,4.62,0,0,0-2.11-2.45V75.27Zm-11-3.33a13.75,13.75,0,0,1-7.71-2,7.78,7.78,0,0,1-3.67-6.83,6.93,6.93,0,0,1,3.46-6.26,14.36,14.36,0,0,1,7.75-2.14,13.27,13.27,0,0,1,7.53,2.1,7.68,7.68,0,0,1,3.58,6.66,7.34,7.34,0,0,1-3.5,6.4A13.13,13.13,0,0,1,310.48,71.94Z"/><path class="73e983ac-d8cd-43d6-a30b-7133a4be7639" d="M357,55.38v55.45a27,27,0,0,0,.3,4.77,3.68,3.68,0,0,0,2.23,2.49v12.35H333.8V118.09a4.4,4.4,0,0,0,2.19-2.58,20,20,0,0,0,.36-4.34V74a12.94,12.94,0,0,0-.44-3.76,4.64,4.64,0,0,0-2.1-2.45V55.38Z"/><path class="73e983ac-d8cd-43d6-a30b-7133a4be7639" d="M392.48,55.38v55.45a25.1,25.1,0,0,0,.32,4.77,3.64,3.64,0,0,0,2.23,2.49v12.35H369.28V118.09a4.37,4.37,0,0,0,2.19-2.58,19.75,19.75,0,0,0,.36-4.34V74a13.61,13.61,0,0,0-.43-3.76,4.66,4.66,0,0,0-2.12-2.45V55.38Z"/><path class="fd16f6ef-5e34-449e-83a2-2fdc0f53d023" d="M463.88,68.7V55.38h25.31V68.7a7.57,7.57,0,0,0-2.45,3.94c-.25.76-.59,2.34-1.06,4.73l-9.9,53.07h-22.5L446.7,94.62l-7.44,35.82H417.2l-9.92-53.07a40.31,40.31,0,0,0-1.13-4.73,8.35,8.35,0,0,0-2.71-3.94V55.38H432.7V68.7a4,4,0,0,0-2.46,4l2.9,23.65,8.06-41h14.37l8.22,40.91,2.55-23.57A4,4,0,0,0,463.88,68.7Z"/><path class="fd16f6ef-5e34-449e-83a2-2fdc0f53d023" d="M555.72,77.17v31.58q0,13.12-7.71,18.55-6.57,4.63-20.24,4.64t-20.13-4.64q-7.81-5.51-7.8-18.55V77.17q0-13.12,7.71-18.55Q514.11,54,527.77,54t20.15,4.64Q555.7,64.13,555.72,77.17ZM523.22,76v33.92a8.8,8.8,0,0,0,.43,3.06,4.05,4.05,0,0,0,4.12,2.8,3.87,3.87,0,0,0,3.46-1.62,7.46,7.46,0,0,0,1.09-4.24V76a8.47,8.47,0,0,0-.44-3.06,4,4,0,0,0-4.12-2.71,3.88,3.88,0,0,0-3.45,1.58A7.12,7.12,0,0,0,523.22,76Z"/><path class="fd16f6ef-5e34-449e-83a2-2fdc0f53d023" d="M623.73,77.17v31.58q0,13.12-7.71,18.55c-4.36,3.09-11.12,4.64-20.22,4.64s-15.77-1.55-20.15-4.64q-7.79-5.51-7.79-18.55V77.17q0-13.12,7.71-18.55Q582.12,54,595.8,54t20.15,4.64Q623.73,64.13,623.73,77.17ZM591.24,76v33.92a8.67,8.67,0,0,0,.44,3.06,4,4,0,0,0,4.11,2.8,3.88,3.88,0,0,0,3.46-1.62,7.45,7.45,0,0,0,1.09-4.24V76a8.75,8.75,0,0,0-.44-3.06,4,4,0,0,0-4.11-2.71,3.93,3.93,0,0,0-3.47,1.58A7.24,7.24,0,0,0,591.24,76Z"/><path class="fd16f6ef-5e34-449e-83a2-2fdc0f53d023" d="M635.43,55.38h32.41a68.26,68.26,0,0,1,9.89.53,19.64,19.64,0,0,1,9.21,3.67,16.38,16.38,0,0,1,5.68,8.5,39,39,0,0,1,1.06,10.33v28.12a41,41,0,0,1-.88,9.9,17.31,17.31,0,0,1-5.16,8.5,19.51,19.51,0,0,1-6.87,4.07q-4.09,1.44-12.23,1.44h-33.1V117.13a4.3,4.3,0,0,0,2.36-2.27,9.52,9.52,0,0,0,.61-3.68V74.65a11,11,0,0,0-.52-3.76,4,4,0,0,0-2.45-2.19ZM661.8,71.77V114.6h1.83c2.56,0,4.32-.54,5.26-1.58s1.41-3,1.41-5.7V79c0-2.74-.48-4.64-1.41-5.69s-2.7-1.57-5.26-1.57Z"/><path class="73e983ac-d8cd-43d6-a30b-7133a4be7639" d="M153.34,52.66l3.56-13.28,3.88-14.5-14.5,3.89L133,32.32A72.93,72.93,0,0,1,153.34,52.66Z"/><path class="73e983ac-d8cd-43d6-a30b-7133a4be7639" d="M171.16,64.07,157.88,60.5a72.36,72.36,0,0,1,7.44,27.8L175,78.57,185.66,68Z"/><path class="73e983ac-d8cd-43d6-a30b-7133a4be7639" d="M175,107.09l-9.73-9.74a72.25,72.25,0,0,1-7.43,27.8l13.27-3.56,14.5-3.89Z"/><path class="73e983ac-d8cd-43d6-a30b-7133a4be7639" d="M153.34,133A72.85,72.85,0,0,1,133,153.34l13.29,3.56,14.5,3.89-3.89-14.5Z"/><path class="73e983ac-d8cd-43d6-a30b-7133a4be7639" d="M97.37,165.32l9.73,9.73,10.62,10.61,3.89-14.5,3.56-13.28A72.15,72.15,0,0,1,97.37,165.32Z"/><path class="73e983ac-d8cd-43d6-a30b-7133a4be7639" d="M60.52,157.9l3.57,13.27L68,185.67,78.58,175l9.73-9.73A72.26,72.26,0,0,1,60.52,157.9Z"/><path class="73e983ac-d8cd-43d6-a30b-7133a4be7639" d="M32.32,133l-3.55,13.29-3.89,14.5,14.5-3.88,13.29-3.57A72.87,72.87,0,0,1,32.32,133Z"/><path class="73e983ac-d8cd-43d6-a30b-7133a4be7639" d="M20.35,97.37l-9.73,9.73L0,117.71l14.5,3.88,13.28,3.56A72.29,72.29,0,0,1,20.35,97.37Z"/><path class="73e983ac-d8cd-43d6-a30b-7133a4be7639" d="M27.78,60.52,14.5,64.08,0,68,10.62,78.58l9.73,9.73A72.1,72.1,0,0,1,27.78,60.52Z"/><path class="73e983ac-d8cd-43d6-a30b-7133a4be7639" d="M32.32,52.67A72.92,72.92,0,0,1,52.66,32.33L39.37,28.77l-14.5-3.89,3.89,14.51Z"/><path class="73e983ac-d8cd-43d6-a30b-7133a4be7639" d="M88.3,20.35l-9.73-9.73L67.95,0l-3.88,14.5L60.51,27.79A72.1,72.1,0,0,1,88.3,20.35Z"/><path class="73e983ac-d8cd-43d6-a30b-7133a4be7639" d="M125.14,27.78,121.59,14.5,117.7,0,107.09,10.62l-9.74,9.73A72.05,72.05,0,0,1,125.14,27.78Z"/><polygon class="fd16f6ef-5e34-449e-83a2-2fdc0f53d023" points="101.5 8.02 92.83 19.47 84.16 8.02 101.5 8.02"/><polygon class="fd16f6ef-5e34-449e-83a2-2fdc0f53d023" points="84.16 177.65 92.83 166.2 101.5 177.65 84.16 177.65"/><polygon class="fd16f6ef-5e34-449e-83a2-2fdc0f53d023" points="57.93 15.05 56.15 29.3 42.91 23.72 57.93 15.05"/><polygon class="fd16f6ef-5e34-449e-83a2-2fdc0f53d023" points="127.73 170.62 129.51 156.37 142.75 161.94 127.73 170.62"/><polygon class="fd16f6ef-5e34-449e-83a2-2fdc0f53d023" points="23.71 42.92 29.29 56.15 15.04 57.94 23.71 42.92"/><polygon class="fd16f6ef-5e34-449e-83a2-2fdc0f53d023" points="161.95 142.75 156.37 129.52 170.62 127.73 161.95 142.75"/><polygon class="fd16f6ef-5e34-449e-83a2-2fdc0f53d023" points="8.02 84.16 19.46 92.83 8.02 101.5 8.02 84.16"/><polygon class="fd16f6ef-5e34-449e-83a2-2fdc0f53d023" points="177.64 101.5 166.2 92.83 177.64 84.16 177.64 101.5"/><polygon class="fd16f6ef-5e34-449e-83a2-2fdc0f53d023" points="15.05 127.73 29.29 129.52 23.72 142.75 15.05 127.73"/><polygon class="fd16f6ef-5e34-449e-83a2-2fdc0f53d023" points="170.62 57.93 156.37 56.15 161.94 42.92 170.62 57.93"/><polygon class="fd16f6ef-5e34-449e-83a2-2fdc0f53d023" points="42.92 161.94 56.15 156.37 57.94 170.62 42.92 161.94"/><polygon class="fd16f6ef-5e34-449e-83a2-2fdc0f53d023" points="142.75 23.72 129.51 29.3 127.73 15.05 142.75 23.72"/><path class="fd16f6ef-5e34-449e-83a2-2fdc0f53d023" d="M110.36,135.21,50.53,75.38a42.31,42.31,0,0,0,59.83,59.83Z"/><polygon class="fd16f6ef-5e34-449e-83a2-2fdc0f53d023" points="140.63 115.92 138.85 46.89 69.82 45.12 140.63 115.92"/><path class="73e983ac-d8cd-43d6-a30b-7133a4be7639" d="M138.7,131.7,54,47A59.56,59.56,0,0,0,47,54.12l84.67,84.67A60.15,60.15,0,0,0,138.7,131.7Z"/><path class="73e983ac-d8cd-43d6-a30b-7133a4be7639" d="M242.5,55.38l7.71,30.74,8.06-30.74H287V68.7a4.5,4.5,0,0,0-2.06,2.45,11.72,11.72,0,0,0-.48,3.59v35a25.44,25.44,0,0,0,.3,4.69,4.46,4.46,0,0,0,2.24,2.67v13.31H259.58V117.13a4.53,4.53,0,0,0,2.06-2.44,11.9,11.9,0,0,0,.48-3.6V89.63l-10.34,40.81h-7.35L233.75,89.63l-.17,20.14a24.52,24.52,0,0,0,.31,4.69,4.45,4.45,0,0,0,2.23,2.67v13.31H213V117.13a4.51,4.51,0,0,0,2.05-2.44,11.85,11.85,0,0,0,.48-3.6V75a13.48,13.48,0,0,0-.44-3.81,4.6,4.6,0,0,0-2.1-2.5V55.38Z"/><path class="73e983ac-d8cd-43d6-a30b-7133a4be7639" d="M321.43,75.27v35.57a26.87,26.87,0,0,0,.18,4,5,5,0,0,0,2.45,3.23v12.35H298.22V118.09a4.41,4.41,0,0,0,2.19-2.58,19.93,19.93,0,0,0,.35-4.34V93.84a13.28,13.28,0,0,0-.44-3.77,4.62,4.62,0,0,0-2.11-2.45V75.27Zm-11-3.33a13.75,13.75,0,0,1-7.71-2,7.78,7.78,0,0,1-3.67-6.83,6.93,6.93,0,0,1,3.46-6.26,14.36,14.36,0,0,1,7.75-2.14,13.27,13.27,0,0,1,7.53,2.1,7.68,7.68,0,0,1,3.58,6.66,7.34,7.34,0,0,1-3.5,6.4A13.13,13.13,0,0,1,310.48,71.94Z"/><path class="73e983ac-d8cd-43d6-a30b-7133a4be7639" d="M357,55.38v55.45a27,27,0,0,0,.3,4.77,3.68,3.68,0,0,0,2.23,2.49v12.35H333.8V118.09a4.4,4.4,0,0,0,2.19-2.58,20,20,0,0,0,.36-4.34V74a12.94,12.94,0,0,0-.44-3.76,4.64,4.64,0,0,0-2.1-2.45V55.38Z"/><path class="73e983ac-d8cd-43d6-a30b-7133a4be7639" d="M392.48,55.38v55.45a25.1,25.1,0,0,0,.32,4.77,3.64,3.64,0,0,0,2.23,2.49v12.35H369.28V118.09a4.37,4.37,0,0,0,2.19-2.58,19.75,19.75,0,0,0,.36-4.34V74a13.61,13.61,0,0,0-.43-3.76,4.66,4.66,0,0,0-2.12-2.45V55.38Z"/><path class="fd16f6ef-5e34-449e-83a2-2fdc0f53d023" d="M463.88,68.7V55.38h25.31V68.7a7.57,7.57,0,0,0-2.45,3.94c-.25.76-.59,2.34-1.06,4.73l-9.9,53.07h-22.5L446.7,94.62l-7.44,35.82H417.2l-9.92-53.07a40.31,40.31,0,0,0-1.13-4.73,8.35,8.35,0,0,0-2.71-3.94V55.38H432.7V68.7a4,4,0,0,0-2.46,4l2.9,23.65,8.06-41h14.37l8.22,40.91,2.55-23.57A4,4,0,0,0,463.88,68.7Z"/><path class="fd16f6ef-5e34-449e-83a2-2fdc0f53d023" d="M555.72,77.17v31.58q0,13.12-7.71,18.55-6.57,4.63-20.24,4.64t-20.13-4.64q-7.81-5.51-7.8-18.55V77.17q0-13.12,7.71-18.55Q514.11,54,527.77,54t20.15,4.64Q555.7,64.13,555.72,77.17ZM523.22,76v33.92a8.8,8.8,0,0,0,.43,3.06,4.05,4.05,0,0,0,4.12,2.8,3.87,3.87,0,0,0,3.46-1.62,7.46,7.46,0,0,0,1.09-4.24V76a8.47,8.47,0,0,0-.44-3.06,4,4,0,0,0-4.12-2.71,3.88,3.88,0,0,0-3.45,1.58A7.12,7.12,0,0,0,523.22,76Z"/><path class="fd16f6ef-5e34-449e-83a2-2fdc0f53d023" d="M623.73,77.17v31.58q0,13.12-7.71,18.55c-4.36,3.09-11.12,4.64-20.22,4.64s-15.77-1.55-20.15-4.64q-7.79-5.51-7.79-18.55V77.17q0-13.12,7.71-18.55Q582.12,54,595.8,54t20.15,4.64Q623.73,64.13,623.73,77.17ZM591.24,76v33.92a8.67,8.67,0,0,0,.44,3.06,4,4,0,0,0,4.11,2.8,3.88,3.88,0,0,0,3.46-1.62,7.45,7.45,0,0,0,1.09-4.24V76a8.75,8.75,0,0,0-.44-3.06,4,4,0,0,0-4.11-2.71,3.93,3.93,0,0,0-3.47,1.58A7.24,7.24,0,0,0,591.24,76Z"/><path class="fd16f6ef-5e34-449e-83a2-2fdc0f53d023" d="M635.43,55.38h32.41a68.26,68.26,0,0,1,9.89.53,19.64,19.64,0,0,1,9.21,3.67,16.38,16.38,0,0,1,5.68,8.5,39,39,0,0,1,1.06,10.33v28.12a41,41,0,0,1-.88,9.9,17.31,17.31,0,0,1-5.16,8.5,19.51,19.51,0,0,1-6.87,4.07q-4.09,1.44-12.23,1.44h-33.1V117.13a4.3,4.3,0,0,0,2.36-2.27,9.52,9.52,0,0,0,.61-3.68V74.65a11,11,0,0,0-.52-3.76,4,4,0,0,0-2.45-2.19ZM661.8,71.77V114.6h1.83c2.56,0,4.32-.54,5.26-1.58s1.41-3,1.41-5.7V79c0-2.74-.48-4.64-1.41-5.69s-2.7-1.57-5.26-1.57Z"/><path class="73e983ac-d8cd-43d6-a30b-7133a4be7639" d="M153.34,52.66l3.56-13.28,3.88-14.5-14.5,3.89L133,32.32A72.93,72.93,0,0,1,153.34,52.66Z"/><path class="73e983ac-d8cd-43d6-a30b-7133a4be7639" d="M171.16,64.07,157.88,60.5a72.36,72.36,0,0,1,7.44,27.8L175,78.57,185.66,68Z"/><path class="73e983ac-d8cd-43d6-a30b-7133a4be7639" d="M175,107.09l-9.73-9.74a72.25,72.25,0,0,1-7.43,27.8l13.27-3.56,14.5-3.89Z"/><path class="73e983ac-d8cd-43d6-a30b-7133a4be7639" d="M153.34,133A72.85,72.85,0,0,1,133,153.34l13.29,3.56,14.5,3.89-3.89-14.5Z"/><path class="73e983ac-d8cd-43d6-a30b-7133a4be7639" d="M97.37,165.32l9.73,9.73,10.62,10.61,3.89-14.5,3.56-13.28A72.15,72.15,0,0,1,97.37,165.32Z"/><path class="73e983ac-d8cd-43d6-a30b-7133a4be7639" d="M60.52,157.9l3.57,13.27L68,185.67,78.58,175l9.73-9.73A72.26,72.26,0,0,1,60.52,157.9Z"/><path class="73e983ac-d8cd-43d6-a30b-7133a4be7639" d="M32.32,133l-3.55,13.29-3.89,14.5,14.5-3.88,13.29-3.57A72.87,72.87,0,0,1,32.32,133Z"/><path class="73e983ac-d8cd-43d6-a30b-7133a4be7639" d="M20.35,97.37l-9.73,9.73L0,117.71l14.5,3.88,13.28,3.56A72.29,72.29,0,0,1,20.35,97.37Z"/><path class="73e983ac-d8cd-43d6-a30b-7133a4be7639" d="M27.78,60.52,14.5,64.08,0,68,10.62,78.58l9.73,9.73A72.1,72.1,0,0,1,27.78,60.52Z"/><path class="73e983ac-d8cd-43d6-a30b-7133a4be7639" d="M32.32,52.67A72.92,72.92,0,0,1,52.66,32.33L39.37,28.77l-14.5-3.89,3.89,14.51Z"/><path class="73e983ac-d8cd-43d6-a30b-7133a4be7639" d="M88.3,20.35l-9.73-9.73L67.95,0l-3.88,14.5L60.51,27.79A72.1,72.1,0,0,1,88.3,20.35Z"/><path class="73e983ac-d8cd-43d6-a30b-7133a4be7639" d="M125.14,27.78,121.59,14.5,117.7,0,107.09,10.62l-9.74,9.73A72.05,72.05,0,0,1,125.14,27.78Z"/><polygon class="fd16f6ef-5e34-449e-83a2-2fdc0f53d023" points="101.5 8.02 92.83 19.47 84.16 8.02 101.5 8.02"/><polygon class="fd16f6ef-5e34-449e-83a2-2fdc0f53d023" points="84.16 177.65 92.83 166.2 101.5 177.65 84.16 177.65"/><polygon class="fd16f6ef-5e34-449e-83a2-2fdc0f53d023" points="57.93 15.05 56.15 29.3 42.91 23.72 57.93 15.05"/><polygon class="fd16f6ef-5e34-449e-83a2-2fdc0f53d023" points="127.73 170.62 129.51 156.37 142.75 161.94 127.73 170.62"/><polygon class="fd16f6ef-5e34-449e-83a2-2fdc0f53d023" points="23.71 42.92 29.29 56.15 15.04 57.94 23.71 42.92"/><polygon class="fd16f6ef-5e34-449e-83a2-2fdc0f53d023" points="161.95 142.75 156.37 129.52 170.62 127.73 161.95 142.75"/><polygon class="fd16f6ef-5e34-449e-83a2-2fdc0f53d023" points="8.02 84.16 19.46 92.83 8.02 101.5 8.02 84.16"/><polygon class="fd16f6ef-5e34-449e-83a2-2fdc0f53d023" points="177.64 101.5 166.2 92.83 177.64 84.16 177.64 101.5"/><polygon class="fd16f6ef-5e34-449e-83a2-2fdc0f53d023" points="15.05 127.73 29.29 129.52 23.72 142.75 15.05 127.73"/><polygon class="fd16f6ef-5e34-449e-83a2-2fdc0f53d023" points="170.62 57.93 156.37 56.15 161.94 42.92 170.62 57.93"/><polygon class="fd16f6ef-5e34-449e-83a2-2fdc0f53d023" points="42.92 161.94 56.15 156.37 57.94 170.62 42.92 161.94"/><polygon class="fd16f6ef-5e34-449e-83a2-2fdc0f53d023" points="142.75 23.72 129.51 29.3 127.73 15.05 142.75 23.72"/></g></g></svg>
