<svg xmlns="http://www.w3.org/2000/svg" viewBox="0 0 17 13">
  <defs>
    <style>
      .cls-1 {
        fill: none;
        stroke: #4e6e32;
      }
    </style>
  </defs>
  <path id="Path_29" data-name="Path 29" class="cls-1" d="M15.688-8.031c-.75.583-2.417,1.667-4.875,3.438l-.281.219a10.542,10.542,0,0,1-1.156.938A2.774,2.774,0,0,1,8-3a2.927,2.927,0,0,1-1.375-.406,12.431,12.431,0,0,1-1.187-.812L5.125-4.5Q1.344-7.25.313-8.031a.2.2,0,0,0-.2-.016A.171.171,0,0,0,0-7.875V-1.5A1.447,1.447,0,0,0,.438-.437,1.447,1.447,0,0,0,1.5,0h13a1.447,1.447,0,0,0,1.063-.437A1.447,1.447,0,0,0,16-1.5V-7.875a.2.2,0,0,0-.109-.187A.154.154,0,0,0,15.688-8.031ZM7.938-3.875a2,2,0,0,1-1-.375,7.2,7.2,0,0,1-1.031-.687l-.281-.219C3.063-7.031,1.417-8.448.5-9.156L.281-9.312A.712.712,0,0,1,0-9.906V-10.5a1.447,1.447,0,0,1,.438-1.062A1.447,1.447,0,0,1,1.5-12h13a1.447,1.447,0,0,1,1.063.438A1.447,1.447,0,0,1,16-10.5v.594a.712.712,0,0,1-.281.594l-.156.125q-1.344,1.063-5.281,3.906l-.312.219h0L9-4.375A2.639,2.639,0,0,1,7.938-3.875Z" transform="translate(0.5 12.5)"/>
</svg>
