<svg xmlns="http://www.w3.org/2000/svg" viewBox="0 0 19.683 19.684">
  <defs>
    <style>
      .cls-1 {
        fill: none;
        stroke: #4e6e32;
      }
    </style>
  </defs>
  <path id="Path_31" data-name="Path 31" class="cls-1" d="M15.406-13.219a.593.593,0,0,1,.438.25A.792.792,0,0,1,16-12.5a14.262,14.262,0,0,1-1.969,7.313A14.569,14.569,0,0,1,8.813.031,14.262,14.262,0,0,1,1.5,2a.792.792,0,0,1-.469-.156.593.593,0,0,1-.25-.437l-.75-3.25a.705.705,0,0,1,.063-.5.673.673,0,0,1,.375-.344l3.5-1.5a.793.793,0,0,1,.469-.047.628.628,0,0,1,.406.266L6.375-2.094A10.985,10.985,0,0,0,9.641-4.375a11.481,11.481,0,0,0,2.266-3.25L10.031-9.187a.748.748,0,0,1-.25-.391.779.779,0,0,1,.031-.484l1.5-3.5a.689.689,0,0,1,.344-.344.705.705,0,0,1,.5-.062Z" transform="matrix(-0.174, 0.985, -0.985, -0.174, 5.327, 0.918)"/>
</svg>
