<svg xmlns="http://www.w3.org/2000/svg" viewBox="0 0 20.69 22"><defs><style>.\33 86d2762-cdcd-4174-92f0-f95a57a493c7{fill:#626970;}</style></defs><title>voronin-studio-logo</title><g id="f1916e1b-6bbf-4e90-b6e5-c978639c6006" data-name="Layer 2"><g id="d13b3429-c768-4501-9197-37e1ade084db" data-name="Layer 1"><path class="386d2762-cdcd-4174-92f0-f95a57a493c7" d="M13.22,13.52l-.07.05a13.75,13.75,0,0,0,5.32,1.33,15.78,15.78,0,0,0,1.39-3,16.81,16.81,0,0,1-5.92,1.22Z"/><path class="386d2762-cdcd-4174-92f0-f95a57a493c7" d="M15.11,12.25a15.21,15.21,0,0,0,5.12-1.81,16.89,16.89,0,0,0,.46-3.92c0-.56,0-1.13-.08-1.68A17.21,17.21,0,0,1,15.11,12.25Z"/><path class="386d2762-cdcd-4174-92f0-f95a57a493c7" d="M18.12,15.4a17,17,0,0,1-6.24-1.18A17,17,0,0,1,8.6,12.51l0,0A17.1,17.1,0,0,1,1.12,0,17.1,17.1,0,0,0,0,6.09c0,.3,0,.6,0,.9s0,.41.05.62a17.24,17.24,0,0,0,.29,2c0,.2,0,.12,0,.2a31.32,31.32,0,0,0,4.29,3.25A20,20,0,0,1,.78,11.21,16.11,16.11,0,0,0,3.2,16c.77.33,2.27,1.07,2.8,1.25a14.48,14.48,0,0,1-2.25-.52,17,17,0,0,0,6.78,5.1l.31.13c.5-.24,1-.49,1.46-.77a17.23,17.23,0,0,0,5.9-5.83Z"/></g></g></svg>